<svg width="274" height="94" viewBox="0 0 274 94" fill="none" xmlns="http://www.w3.org/2000/svg">
<path d="M124.003 31H122.745V26.3379H117.618V31H116.36V21.0059H117.618V25.2305H122.745V21.0059H124.003V31ZM129.759 31.1367C128.633 31.1367 127.749 30.7972 127.106 30.1182C126.468 29.4346 126.149 28.4958 126.149 27.3018C126.149 26.0986 126.448 25.1416 127.045 24.4307C127.642 23.7152 128.449 23.3574 129.465 23.3574C130.408 23.3574 131.16 23.6628 131.721 24.2734C132.281 24.8796 132.562 25.7021 132.562 26.7412V27.4863H127.421C127.444 28.3385 127.66 28.9857 128.07 29.4277C128.48 29.8698 129.062 30.0908 129.813 30.0908C130.215 30.0908 130.595 30.0566 130.955 29.9883C131.315 29.9154 131.737 29.7764 132.22 29.5713V30.6514C131.805 30.8291 131.415 30.9544 131.051 31.0273C130.686 31.1003 130.256 31.1367 129.759 31.1367ZM129.451 24.3623C128.863 24.3623 128.398 24.5514 128.057 24.9297C127.715 25.3079 127.512 25.8343 127.448 26.5088H131.27C131.26 25.807 131.099 25.2738 130.784 24.9092C130.47 24.5446 130.025 24.3623 129.451 24.3623ZM128.692 32.6816C128.692 32.4082 128.763 32.2077 128.904 32.0801C129.05 31.957 129.223 31.8955 129.424 31.8955C129.62 31.8955 129.788 31.957 129.93 32.0801C130.076 32.2077 130.148 32.4082 130.148 32.6816C130.148 32.9232 130.08 33.1123 129.943 33.249C129.811 33.3903 129.638 33.4609 129.424 33.4609C129.205 33.4609 129.027 33.3926 128.891 33.2559C128.758 33.1191 128.692 32.9277 128.692 32.6816ZM127.065 22.3594C127.635 21.7487 128.036 21.2975 128.269 21.0059C128.506 20.7142 128.679 20.4704 128.788 20.2744H130.046C130.283 20.7347 130.866 21.4297 131.796 22.3594V22.5166H130.928C130.518 22.2751 130.009 21.8558 129.403 21.2588C128.806 21.8421 128.307 22.2614 127.906 22.5166H127.065V22.3594ZM140.614 30.1318C140.774 30.1318 140.961 30.1159 141.175 30.084C141.389 30.0521 141.551 30.0156 141.66 29.9746V30.918C141.546 30.9681 141.368 31.016 141.127 31.0615C140.89 31.1117 140.648 31.1367 140.402 31.1367C138.935 31.1367 138.201 30.3643 138.201 28.8193V24.4512H137.142V23.8633L138.215 23.3711L138.707 21.7715H139.438V23.4941H141.605V24.4512H139.438V28.7852C139.438 29.2181 139.541 29.5508 139.746 29.7832C139.956 30.0156 140.245 30.1318 140.614 30.1318ZM148.277 31V26.2012C148.277 25.5905 148.141 25.137 147.867 24.8408C147.598 24.54 147.174 24.3896 146.596 24.3896C145.835 24.3896 145.276 24.6016 144.921 25.0254C144.57 25.4492 144.395 26.1488 144.395 27.124V31H143.164V20.3633H144.395V23.4805C144.395 23.8906 144.372 24.2415 144.326 24.5332H144.408C144.632 24.1686 144.948 23.8838 145.358 23.6787C145.769 23.4736 146.231 23.3711 146.746 23.3711C147.658 23.3711 148.343 23.5898 148.804 24.0273C149.264 24.4603 149.494 25.1553 149.494 26.1123V31H148.277ZM158.34 27.2334C158.34 28.4593 158.03 29.4163 157.41 30.1045C156.79 30.7926 155.934 31.1367 154.84 31.1367C154.161 31.1367 153.559 30.9795 153.035 30.665C152.511 30.346 152.108 29.8903 151.825 29.2979C151.543 28.7054 151.401 28.0173 151.401 27.2334C151.401 26.012 151.707 25.0618 152.317 24.3828C152.928 23.6992 153.785 23.3574 154.888 23.3574C155.945 23.3574 156.784 23.7061 157.403 24.4033C158.028 25.096 158.34 26.0394 158.34 27.2334ZM152.673 27.2334C152.673 28.1768 152.857 28.8945 153.227 29.3867C153.6 29.8743 154.149 30.1182 154.874 30.1182C155.59 30.1182 156.134 29.8743 156.508 29.3867C156.882 28.8945 157.068 28.1768 157.068 27.2334C157.068 26.29 156.879 25.5814 156.501 25.1074C156.127 24.6289 155.578 24.3896 154.854 24.3896C153.4 24.3896 152.673 25.3376 152.673 27.2334ZM156.973 22.5166H156.289C155.779 22.1748 155.298 21.7965 154.847 21.3818C154.327 21.8421 153.846 22.2204 153.404 22.5166H152.714V22.3457C152.946 22.0814 153.197 21.7965 153.466 21.4912C153.739 21.1813 153.985 20.8691 154.204 20.5547H155.489C155.813 21.0241 156.307 21.6211 156.973 22.3457V22.5166ZM156.426 21.0195C156.758 20.6048 157.048 20.1423 157.294 19.6318H158.524V19.7754C158.155 20.2676 157.69 20.737 157.13 21.1836H156.426V21.0195ZM165.408 31V26.2012C165.408 25.5905 165.271 25.137 164.998 24.8408C164.729 24.54 164.305 24.3896 163.727 24.3896C162.956 24.3896 162.396 24.6038 162.045 25.0322C161.699 25.4561 161.525 26.1488 161.525 27.1104V31H160.295V23.4941H161.286L161.471 24.5195H161.539C161.771 24.1504 162.097 23.8656 162.517 23.665C162.936 23.46 163.398 23.3574 163.904 23.3574C164.825 23.3574 165.508 23.5807 165.955 24.0273C166.402 24.474 166.625 25.1689 166.625 26.1123V31H165.408ZM171.807 30.1318C172.563 30.1318 173.112 29.929 173.454 29.5234C173.8 29.1133 173.974 28.457 173.974 27.5547V27.2607C173.974 26.2581 173.8 25.529 173.454 25.0732C173.108 24.6175 172.549 24.3896 171.779 24.3896C171.15 24.3896 170.663 24.6403 170.316 25.1416C169.975 25.6383 169.804 26.3493 169.804 27.2744C169.804 28.2041 169.97 28.9128 170.303 29.4004C170.64 29.888 171.141 30.1318 171.807 30.1318ZM173.96 30.9316L174.001 30.0088H173.946C173.44 30.7607 172.666 31.1367 171.622 31.1367C170.651 31.1367 169.893 30.7995 169.346 30.125C168.803 29.446 168.532 28.4912 168.532 27.2607C168.532 26.0531 168.806 25.1006 169.353 24.4033C169.904 23.7061 170.656 23.3574 171.608 23.3574C172.625 23.3574 173.409 23.7357 173.96 24.4922H174.035L174.199 23.4941H175.177V31.123C175.177 32.1986 174.903 33.0075 174.356 33.5498C173.814 34.0921 172.969 34.3633 171.82 34.3633C170.727 34.3633 169.826 34.2038 169.12 33.8848V32.75C169.849 33.1419 170.772 33.3379 171.889 33.3379C172.527 33.3379 173.03 33.151 173.399 32.7773C173.773 32.4036 173.96 31.8864 173.96 31.2256V30.9316ZM184.07 30.1182C184.804 30.1182 185.34 29.9176 185.677 29.5166C186.014 29.1156 186.192 28.4525 186.21 27.5273V27.2744C186.21 26.2399 186.037 25.4993 185.69 25.0527C185.344 24.6016 184.795 24.376 184.043 24.376C183.4 24.376 182.908 24.6289 182.566 25.1348C182.225 25.6406 182.054 26.3584 182.054 27.2881C182.054 28.2041 182.222 28.9059 182.56 29.3936C182.901 29.8766 183.405 30.1182 184.07 30.1182ZM183.831 31.1367C182.865 31.1367 182.115 30.7949 181.582 30.1113C181.049 29.4277 180.782 28.4775 180.782 27.2607C180.782 26.0394 181.053 25.0846 181.596 24.3965C182.143 23.7038 182.901 23.3574 183.872 23.3574C184.897 23.3574 185.677 23.7448 186.21 24.5195H186.265L186.449 23.4941H187.427V34.3633H186.196V31.1572C186.196 30.6559 186.219 30.2686 186.265 29.9951H186.183C185.659 30.7562 184.875 31.1367 183.831 31.1367ZM190.975 23.4941V28.3271C190.975 28.9333 191.109 29.3844 191.378 29.6807C191.651 29.9723 192.073 30.1182 192.643 30.1182C193.413 30.1182 193.973 29.904 194.324 29.4756C194.675 29.0472 194.851 28.3568 194.851 27.4043V23.4941H196.088V31H195.076L194.898 30.0088H194.837C194.614 30.3688 194.297 30.6468 193.887 30.8428C193.477 31.0387 193 31.1367 192.458 31.1367C191.556 31.1367 190.874 30.9202 190.414 30.4873C189.958 30.0544 189.73 29.3617 189.73 28.4092V23.4941H190.975ZM203.102 31L202.862 29.9336H202.808C202.434 30.403 202.06 30.722 201.687 30.8906C201.317 31.0547 200.85 31.1367 200.285 31.1367C199.547 31.1367 198.968 30.943 198.549 30.5557C198.13 30.1683 197.92 29.6214 197.92 28.915C197.92 27.3929 199.121 26.5954 201.522 26.5225L202.794 26.4746V26.0303C202.794 25.4606 202.671 25.0413 202.425 24.7725C202.179 24.499 201.785 24.3623 201.242 24.3623C200.846 24.3623 200.47 24.4215 200.114 24.54C199.763 24.6585 199.433 24.7907 199.123 24.9365L198.747 24.0137C199.125 23.8132 199.538 23.6559 199.984 23.542C200.431 23.4281 200.873 23.3711 201.311 23.3711C202.217 23.3711 202.892 23.5716 203.334 23.9727C203.776 24.3737 203.997 25.0117 203.997 25.8867V31H203.102ZM200.565 30.1455C201.254 30.1455 201.794 29.9609 202.186 29.5918C202.582 29.2181 202.78 28.6895 202.78 28.0059V27.3291L201.673 27.377C200.812 27.4089 200.183 27.5456 199.786 27.7871C199.394 28.0286 199.198 28.4092 199.198 28.9287C199.198 29.3206 199.317 29.6214 199.554 29.8311C199.795 30.0407 200.132 30.1455 200.565 30.1455ZM202.739 20.7803C202.739 21.4183 202.361 21.8239 201.604 21.9971L201.536 22.7422H200.777L200.682 21.5527C201.019 21.4935 201.288 21.4115 201.488 21.3066C201.689 21.2018 201.789 21.04 201.789 20.8213C201.789 20.4476 201.484 20.2607 200.873 20.2607C200.632 20.2607 200.408 20.279 200.203 20.3154V19.5908C200.372 19.5361 200.629 19.5088 200.976 19.5088C202.151 19.5088 202.739 19.9326 202.739 20.7803ZM211.441 31V26.2012C211.441 25.5905 211.305 25.137 211.031 24.8408C210.762 24.54 210.339 24.3896 209.76 24.3896C208.99 24.3896 208.429 24.6038 208.078 25.0322C207.732 25.4561 207.559 26.1488 207.559 27.1104V31H206.328V23.4941H207.319L207.504 24.5195H207.572C207.805 24.1504 208.131 23.8656 208.55 23.665C208.969 23.46 209.432 23.3574 209.938 23.3574C210.858 23.3574 211.542 23.5807 211.988 24.0273C212.435 24.474 212.658 25.1689 212.658 26.1123V31H211.441ZM219.85 31H218.619V20.3633H219.85V31ZM221.053 23.4941H222.372L223.992 27.7666C224.334 28.6963 224.544 29.3776 224.621 29.8105H224.676C224.717 29.6419 224.81 29.3275 224.956 28.8672C225.102 28.4023 225.225 28.0309 225.325 27.7529L226.85 23.4941H228.176L224.942 32.0391C224.628 32.8685 224.254 33.4632 223.821 33.8232C223.388 34.1833 222.853 34.3633 222.215 34.3633C221.873 34.3633 221.534 34.3245 221.196 34.2471V33.2695C221.424 33.3242 221.698 33.3516 222.017 33.3516C222.409 33.3516 222.741 33.2422 223.015 33.0234C223.288 32.8092 223.511 32.4766 223.685 32.0254L224.074 31.0273L221.053 23.4941ZM223.842 22.3457C224.015 22.127 224.234 21.8171 224.498 21.416C224.767 21.0104 224.993 20.6299 225.175 20.2744H226.658V20.418C226.458 20.7096 226.146 21.0765 225.722 21.5186C225.298 21.9606 224.942 22.2933 224.655 22.5166H223.842V22.3457ZM234.219 27.1377L234.636 26.6045L235.114 26.0303L237.514 23.4941H238.949L235.914 26.7002L239.161 31H237.678L235.073 27.5L234.219 28.2451V31H233.002V20.3633H234.219V25.9209L234.164 27.1377H234.219ZM239.305 23.4941H240.624L242.244 27.7666C242.586 28.6963 242.796 29.3776 242.873 29.8105H242.928C242.969 29.6419 243.062 29.3275 243.208 28.8672C243.354 28.4023 243.477 28.0309 243.577 27.7529L245.102 23.4941H246.428L243.194 32.0391C242.88 32.8685 242.506 33.4632 242.073 33.8232C241.64 34.1833 241.105 34.3633 240.467 34.3633C240.125 34.3633 239.785 34.3245 239.448 34.2471V33.2695C239.676 33.3242 239.95 33.3516 240.269 33.3516C240.66 33.3516 240.993 33.2422 241.267 33.0234C241.54 32.8092 241.763 32.4766 241.937 32.0254L242.326 31.0273L239.305 23.4941ZM243.666 22.5166H242.839C242.497 22.2432 242.121 21.89 241.711 21.457C241.305 21.0195 241.018 20.6732 240.85 20.418V20.2744H242.319C242.465 20.5752 242.673 20.9352 242.941 21.3545C243.21 21.7692 243.452 22.0996 243.666 22.3457V22.5166ZM253.763 30.1318C253.922 30.1318 254.109 30.1159 254.323 30.084C254.537 30.0521 254.699 30.0156 254.809 29.9746V30.918C254.695 30.9681 254.517 31.016 254.275 31.0615C254.038 31.1117 253.797 31.1367 253.551 31.1367C252.083 31.1367 251.35 30.3643 251.35 28.8193V24.4512H250.29V23.8633L251.363 23.3711L251.855 21.7715H252.587V23.4941H254.754V24.4512H252.587V28.7852C252.587 29.2181 252.689 29.5508 252.895 29.7832C253.104 30.0156 253.394 30.1318 253.763 30.1318ZM261.426 31V26.2012C261.426 25.5905 261.289 25.137 261.016 24.8408C260.747 24.54 260.323 24.3896 259.744 24.3896C258.983 24.3896 258.425 24.6016 258.069 25.0254C257.718 25.4492 257.543 26.1488 257.543 27.124V31H256.312V20.3633H257.543V23.4805C257.543 23.8906 257.52 24.2415 257.475 24.5332H257.557C257.78 24.1686 258.097 23.8838 258.507 23.6787C258.917 23.4736 259.38 23.3711 259.895 23.3711C260.806 23.3711 261.492 23.5898 261.952 24.0273C262.412 24.4603 262.643 25.1553 262.643 26.1123V31H261.426ZM266.197 31H264.967V23.4941H266.197V31ZM264.871 21.4639C264.871 21.1904 264.939 20.9922 265.076 20.8691C265.217 20.7461 265.391 20.6846 265.596 20.6846C265.787 20.6846 265.953 20.7461 266.095 20.8691C266.241 20.9922 266.313 21.1904 266.313 21.4639C266.313 21.7327 266.241 21.931 266.095 22.0586C265.953 22.1862 265.787 22.25 265.596 22.25C265.391 22.25 265.217 22.1862 265.076 22.0586C264.939 21.931 264.871 21.7327 264.871 21.4639Z" fill="#1192F6"/>
<path d="M125.329 55.9893C125.329 57.6436 124.919 58.915 124.099 59.8037C123.278 60.6924 122.103 61.1367 120.571 61.1367C119.04 61.1367 117.864 60.6924 117.044 59.8037C116.224 58.915 115.813 57.639 115.813 55.9756C115.813 54.3122 116.224 53.043 117.044 52.168C117.869 51.2884 119.049 50.8486 120.585 50.8486C122.121 50.8486 123.294 51.2907 124.105 52.1748C124.921 53.0589 125.329 54.3304 125.329 55.9893ZM118.035 55.9893C118.035 57.1058 118.247 57.9466 118.671 58.5117C119.095 59.0768 119.728 59.3594 120.571 59.3594C122.262 59.3594 123.107 58.236 123.107 55.9893C123.107 53.738 122.267 52.6123 120.585 52.6123C119.742 52.6123 119.106 52.8971 118.678 53.4668C118.249 54.0319 118.035 54.8727 118.035 55.9893ZM127.4 61V51.0059H129.52V59.25H133.573V61H127.4ZM138.222 55.1211L140.307 51.0059H142.59L139.274 57.1104V61H137.169V57.1787L133.854 51.0059H136.15L138.222 55.1211ZM148.079 61L145.673 53.1592H145.611C145.698 54.7542 145.741 55.8184 145.741 56.3516V61H143.848V51.0059H146.732L149.098 58.6484H149.139L151.647 51.0059H154.532V61H152.557V56.2695C152.557 56.0462 152.559 55.7887 152.563 55.4971C152.573 55.2054 152.604 54.4307 152.659 53.1729H152.598L150.021 61H148.079ZM159.174 55.709H159.871C160.523 55.709 161.01 55.5814 161.334 55.3262C161.658 55.0664 161.819 54.6904 161.819 54.1982C161.819 53.7015 161.683 53.3346 161.409 53.0977C161.14 52.8607 160.716 52.7422 160.138 52.7422H159.174V55.709ZM163.959 54.123C163.959 55.1986 163.622 56.0212 162.947 56.5908C162.277 57.1605 161.323 57.4453 160.083 57.4453H159.174V61H157.055V51.0059H160.247C161.459 51.0059 162.38 51.2679 163.009 51.792C163.642 52.3115 163.959 53.0885 163.959 54.123ZM169.585 61H165.039V59.7969L166.256 59.2363V52.7695L165.039 52.209V51.0059H169.585V52.209L168.368 52.7695V59.2363L169.585 59.7969V61ZM175.546 52.626C174.748 52.626 174.131 52.9268 173.693 53.5283C173.256 54.1253 173.037 54.9593 173.037 56.0303C173.037 58.2588 173.873 59.373 175.546 59.373C176.248 59.373 177.098 59.1976 178.096 58.8467V60.624C177.275 60.9658 176.359 61.1367 175.348 61.1367C173.894 61.1367 172.782 60.6969 172.012 59.8174C171.242 58.9333 170.856 57.6663 170.856 56.0166C170.856 54.9775 171.046 54.0684 171.424 53.2891C171.802 52.5052 172.344 51.9059 173.051 51.4912C173.762 51.0719 174.593 50.8623 175.546 50.8623C176.517 50.8623 177.492 51.097 178.472 51.5664L177.788 53.2891C177.414 53.1113 177.038 52.9564 176.66 52.8242C176.282 52.6921 175.91 52.626 175.546 52.626Z" fill="#1192F6"/>
<mask id="path-3-inside-1" fill="white">
<path d="M80 9.5C94.5 13 105 6 105 6V80.5C105 80.5 104.5 85.5 80 83C55.5 80.5 55.5 90 55.5 90V16C55.5 16 65.5 6 80 9.5Z"/>
<path d="M6 6C6 6 16.5 13 31 9.5C45.5 6 55.5 16 55.5 16V90C55.5 90 55.5 80.5 31 83C6.50001 85.5 6 80.5 6 80.5V6Z"/>
</mask>
<path d="M80 9.5C94.5 13 105 6 105 6V80.5C105 80.5 104.5 85.5 80 83C55.5 80.5 55.5 90 55.5 90V16C55.5 16 65.5 6 80 9.5Z" fill="url(#paint0_linear)"/>
<path d="M6 6C6 6 16.5 13 31 9.5C45.5 6 55.5 16 55.5 16V90C55.5 90 55.5 80.5 31 83C6.50001 85.5 6 80.5 6 80.5V6Z" fill="url(#paint1_linear)"/>
<path d="M55 16V90H56V16H55ZM105 6H106V4.13148L104.445 5.16795L105 6ZM55.5 16L54.7929 16.7071L55.5 17.4142L56.2071 16.7071L55.5 16ZM105 80.5L105.995 80.5995L106 80.5499V80.5H105ZM6 6L6.5547 5.16795L5 4.13148V6H6ZM6 80.5H5V80.5499L5.00496 80.5995L6 80.5ZM105 6C104.445 5.16795 104.446 5.16774 104.446 5.16756C104.446 5.16753 104.446 5.16738 104.446 5.16733C104.446 5.16723 104.446 5.16723 104.446 5.16734C104.446 5.16755 104.445 5.16819 104.443 5.16923C104.44 5.17132 104.434 5.17504 104.426 5.18034C104.41 5.19092 104.384 5.20779 104.348 5.23041C104.275 5.27565 104.164 5.34387 104.015 5.43085C103.718 5.60482 103.271 5.85362 102.688 6.14348C101.52 6.72349 99.8088 7.4662 97.6539 8.10357C93.3447 9.3781 87.2771 10.2278 80.2346 8.52792L79.7654 10.4721C87.2229 12.2722 93.6553 11.3719 98.2211 10.0214C100.504 9.3463 102.323 8.55776 103.578 7.93464C104.205 7.62295 104.692 7.35221 105.026 7.15705C105.192 7.05945 105.321 6.9807 105.41 6.92511C105.454 6.89731 105.488 6.8753 105.513 6.85961C105.525 6.85177 105.534 6.8455 105.541 6.84089C105.545 6.83858 105.548 6.83668 105.55 6.83521C105.551 6.83447 105.552 6.83384 105.553 6.83331C105.553 6.83305 105.554 6.83273 105.554 6.8326C105.554 6.83231 105.555 6.83205 105 6ZM80.2346 8.52792C72.7046 6.71031 66.3415 8.40211 61.881 10.5354C59.6521 11.6014 57.8913 12.7804 56.6848 13.6954C56.081 14.1533 55.6145 14.5463 55.2959 14.8277C55.1366 14.9685 55.0141 15.0815 54.9299 15.1609C54.8877 15.2006 54.8551 15.232 54.8323 15.2542C54.8208 15.2653 54.8118 15.2742 54.8052 15.2806C54.802 15.2839 54.7993 15.2865 54.7972 15.2886C54.7962 15.2896 54.7953 15.2905 54.7946 15.2912C54.7942 15.2916 54.7938 15.292 54.7936 15.2922C54.7932 15.2925 54.7929 15.2929 55.5 16C56.2071 16.7071 56.2068 16.7074 56.2066 16.7076C56.2066 16.7076 56.2064 16.7078 56.2063 16.7079C56.2062 16.708 56.2062 16.708 56.2064 16.7078C56.2068 16.7074 56.2078 16.7064 56.2094 16.7049C56.2125 16.7018 56.2181 16.6963 56.226 16.6886C56.2418 16.6732 56.2672 16.6488 56.3018 16.6162C56.3711 16.5508 56.4777 16.4524 56.6201 16.3266C56.9051 16.0748 57.333 15.7139 57.8933 15.289C59.0149 14.4384 60.6604 13.3361 62.7439 12.3396C66.9085 10.3479 72.7954 8.78969 79.7654 10.4721L80.2346 8.52792ZM55.5 90C56.5 90 56.5 90.0012 56.5 90.0024C56.5 90.0028 56.5 90.0039 56.5 90.0046C56.5 90.006 56.5 90.0073 56.5 90.0084C56.4999 90.0107 56.4999 90.0124 56.4999 90.0136C56.4998 90.016 56.4998 90.0163 56.4999 90.0146C56.5 90.0111 56.5006 89.9994 56.5022 89.9803C56.5056 89.9421 56.5132 89.8741 56.5307 89.7812C56.5655 89.5955 56.6393 89.3109 56.7949 88.9647C57.1022 88.2811 57.7463 87.3178 59.1211 86.3919C61.8968 84.5226 67.738 82.754 79.8985 83.9948L80.1015 82.0052C67.762 80.746 61.3531 82.4774 58.0039 84.7331C56.3162 85.8697 55.429 87.1252 54.9707 88.1447C54.7436 88.65 54.6259 89.0881 54.565 89.4122C54.5346 89.5742 54.5184 89.7078 54.5097 89.8075C54.5054 89.8574 54.503 89.8988 54.5016 89.9311C54.5009 89.9472 54.5005 89.9611 54.5003 89.9726C54.5002 89.9784 54.5001 89.9835 54.5001 89.9881C54.5 89.9904 54.5 89.9925 54.5 89.9945C54.5 89.9955 54.5 89.9969 54.5 89.9974C54.5 89.9987 54.5 90 55.5 90ZM79.8985 83.9948C92.1864 85.2487 98.5928 84.6401 101.97 83.6469C103.668 83.1474 104.663 82.5328 105.246 81.9493C105.54 81.6557 105.724 81.3749 105.837 81.1329C105.893 81.0127 105.93 80.9052 105.954 80.8142C105.967 80.7689 105.975 80.7279 105.982 80.6919C105.985 80.6739 105.988 80.6572 105.99 80.6417C105.991 80.634 105.992 80.6266 105.993 80.6196C105.993 80.6161 105.994 80.6126 105.994 80.6093C105.994 80.6076 105.994 80.6052 105.995 80.6043C105.995 80.6019 105.995 80.5995 105 80.5C104.005 80.4005 104.005 80.3981 104.005 80.3958C104.006 80.395 104.006 80.3927 104.006 80.3912C104.006 80.3881 104.007 80.3851 104.007 80.3822C104.008 80.3764 104.008 80.3708 104.009 80.3655C104.011 80.3549 104.012 80.3453 104.014 80.3367C104.017 80.3194 104.02 80.3062 104.022 80.2969C104.028 80.2779 104.03 80.2754 104.024 80.2871C104.014 80.3087 103.968 80.399 103.832 80.5351C103.556 80.811 102.895 81.2901 101.405 81.7281C98.4072 82.6099 92.3136 83.2513 80.1015 82.0052L79.8985 83.9948ZM106 80.5V6H104V80.5H106ZM6 6C5.4453 6.83205 5.44569 6.83231 5.44613 6.8326C5.44632 6.83273 5.4468 6.83305 5.4472 6.83331C5.44799 6.83384 5.44894 6.83447 5.45006 6.83521C5.45229 6.83668 5.45516 6.83858 5.45868 6.84089C5.4657 6.8455 5.47529 6.85177 5.48742 6.85961C5.51167 6.8753 5.54607 6.89731 5.59042 6.92511C5.67912 6.9807 5.80766 7.05945 5.97446 7.15705C6.30799 7.35221 6.79485 7.62295 7.42229 7.93464C8.67662 8.55776 10.4963 9.3463 12.7789 10.0214C17.3447 11.3719 23.7771 12.2722 31.2346 10.4721L30.7654 8.52792C23.7229 10.2278 17.6553 9.3781 13.3461 8.10357C11.1912 7.4662 9.47963 6.72349 8.31209 6.14348C7.72859 5.85362 7.28185 5.60482 6.98453 5.43085C6.83589 5.34387 6.72469 5.27565 6.6525 5.23041C6.61641 5.20779 6.59008 5.19092 6.57371 5.18034C6.56553 5.17504 6.55983 5.17132 6.55666 5.16923C6.55507 5.16819 6.55411 5.16755 6.55378 5.16734C6.55362 5.16723 6.55361 5.16723 6.55377 5.16733C6.55384 5.16738 6.55408 5.16753 6.55411 5.16756C6.55439 5.16774 6.5547 5.16795 6 6ZM31.2346 10.4721C38.2046 8.78969 44.0915 10.3479 48.256 12.3396C50.3396 13.3361 51.9851 14.4384 53.1067 15.289C53.6669 15.7139 54.0949 16.0748 54.3799 16.3266C54.5223 16.4524 54.6289 16.5508 54.6982 16.6162C54.7328 16.6488 54.7582 16.6732 54.774 16.6886C54.7819 16.6963 54.7875 16.7018 54.7906 16.7049C54.7922 16.7064 54.7932 16.7074 54.7936 16.7078C54.7938 16.708 54.7938 16.708 54.7937 16.7079C54.7936 16.7078 54.7934 16.7076 54.7934 16.7076C54.7932 16.7074 54.7929 16.7071 55.5 16C56.2071 15.2929 56.2068 15.2925 56.2064 15.2922C56.2062 15.292 56.2058 15.2916 56.2054 15.2912C56.2047 15.2905 56.2038 15.2896 56.2028 15.2886C56.2007 15.2865 56.198 15.2839 56.1948 15.2806C56.1882 15.2742 56.1792 15.2653 56.1677 15.2542C56.1448 15.232 56.1123 15.2006 56.0701 15.1609C55.9859 15.0815 55.8634 14.9685 55.7041 14.8277C55.3855 14.5463 54.919 14.1533 54.3152 13.6954C53.1087 12.7804 51.3479 11.6014 49.119 10.5354C44.6585 8.40211 38.2954 6.71031 30.7654 8.52792L31.2346 10.4721ZM55.5 90C56.5 90 56.5 89.9987 56.5 89.9974C56.5 89.9969 56.5 89.9955 56.5 89.9945C56.5 89.9925 56.5 89.9904 56.4999 89.9881C56.4999 89.9835 56.4998 89.9784 56.4997 89.9726C56.4995 89.9611 56.4991 89.9472 56.4984 89.9311C56.497 89.8988 56.4946 89.8574 56.4903 89.8075C56.4816 89.7078 56.4654 89.5742 56.435 89.4122C56.3741 89.0881 56.2564 88.65 56.0293 88.1447C55.5709 87.1252 54.6838 85.8697 52.9961 84.7331C49.6469 82.4774 43.238 80.746 30.8985 82.0052L31.1015 83.9948C43.262 82.754 49.1031 84.5226 51.8789 86.3919C53.2537 87.3178 53.8978 88.2811 54.2051 88.9647C54.3607 89.3109 54.4345 89.5955 54.4693 89.7812C54.4868 89.8741 54.4944 89.9421 54.4978 89.9803C54.4994 89.9994 54.5 90.0111 54.5001 90.0146C54.5002 90.0163 54.5002 90.016 54.5001 90.0136C54.5001 90.0124 54.5001 90.0107 54.5 90.0084C54.5 90.0073 54.5 90.006 54.5 90.0046C54.5 90.0039 54.5 90.0028 54.5 90.0024C54.5 90.0012 54.5 90 55.5 90ZM30.8985 82.0052C18.6864 83.2513 12.5928 82.6099 9.59467 81.7281C8.10526 81.2901 7.44397 80.811 7.16804 80.5351C7.03193 80.399 6.9856 80.3087 6.97552 80.2871C6.97004 80.2754 6.97248 80.2779 6.97756 80.2969C6.98007 80.3062 6.98317 80.3194 6.98628 80.3367C6.98784 80.3453 6.98939 80.3549 6.99087 80.3655C6.99161 80.3708 6.99234 80.3764 6.99303 80.3822C6.99338 80.3851 6.99373 80.3881 6.99406 80.3912C6.99422 80.3927 6.99447 80.395 6.99455 80.3958C6.9948 80.3981 6.99504 80.4005 6 80.5C5.00496 80.5995 5.00521 80.6019 5.00546 80.6043C5.00555 80.6052 5.00581 80.6076 5.00599 80.6093C5.00636 80.6126 5.00675 80.6161 5.00717 80.6196C5.00801 80.6266 5.00896 80.634 5.01004 80.6417C5.01219 80.6572 5.01483 80.6739 5.01808 80.6919C5.02458 80.7279 5.03348 80.7689 5.04563 80.8142C5.07 80.9052 5.1071 81.0127 5.16315 81.1329C5.27613 81.3749 5.46026 81.6557 5.75383 81.9493C6.33729 82.5328 7.33225 83.1474 9.03034 83.6469C12.4072 84.6401 18.8136 85.2487 31.1015 83.9948L30.8985 82.0052ZM7 80.5V6H5V80.5H7Z" fill="black" mask="url(#path-3-inside-1)"/>
<defs>
<linearGradient id="paint0_linear" x1="63" y1="6" x2="16" y2="90" gradientUnits="userSpaceOnUse">
<stop stop-color="white" stop-opacity="0"/>
<stop offset="0.298795" stop-color="#CECECE" stop-opacity="0.45"/>
<stop offset="0.300783" stop-color="#07C3FF"/>
</linearGradient>
<linearGradient id="paint1_linear" x1="63" y1="6" x2="16" y2="90" gradientUnits="userSpaceOnUse">
<stop stop-color="white" stop-opacity="0"/>
<stop offset="0.298795" stop-color="#CECECE" stop-opacity="0.45"/>
<stop offset="0.300783" stop-color="#07C3FF"/>
</linearGradient>
</defs>
</svg>
